HIERARCHY
ROOT Hips
{
 OFFSET 0.000000 0.000000 0.000000
 CHANNELS 6 Xposition Yposition Zposition Yrotation Xrotation Zrotation
 JOINT Chest
 {
  OFFSET 0.000000 9.857222 0.000240
  CHANNELS 3 Yrotation Xrotation Zrotation
  JOINT Chest2
  {
   OFFSET 0.000000 10.876940 -0.000436
   CHANNELS 3 Yrotation Xrotation Zrotation
   JOINT Chest3
   {
    OFFSET 0.000000 9.827798 0.000000
    CHANNELS 3 Yrotation Xrotation Zrotation
    JOINT Chest4
    {
     OFFSET 0.000000 9.827798 0.000000
     CHANNELS 3 Yrotation Xrotation Zrotation
     JOINT Neck
     {
      OFFSET 0.000000 13.831992 0.000000
      CHANNELS 3 Yrotation Xrotation Zrotation
      JOINT Head
      {
       OFFSET 0.000000 9.147643 -0.001036
       CHANNELS 3 Yrotation Xrotation Zrotation
       End Site
       {
        OFFSET 0.000000 17.515799 -0.000541
       }
      }
     }
     JOINT RightCollar
     {
      OFFSET -3.001579 7.717577 0.000000
      CHANNELS 3 Yrotation Xrotation Zrotation
      JOINT RightShoulder
      {
       OFFSET -14.002642 0.000000 0.000000
       CHANNELS 3 Yrotation Xrotation Zrotation
       JOINT RightElbow
       {
        OFFSET -30.053852 0.000000 0.000000
        CHANNELS 3 Yrotation Xrotation Zrotation
        JOINT RightWrist
        {
         OFFSET -24.564923 0.000000 -0.000000
         CHANNELS 3 Yrotation Xrotation Zrotation
         End Site
         {
          OFFSET -18.334355 0.000000 0.000000
         }
        }
       }
      }
     }
     JOINT LeftCollar
     {
      OFFSET 3.001579 7.717577 0.000000
      CHANNELS 3 Yrotation Xrotation Zrotation
      JOINT LeftShoulder
      {
       OFFSET 14.002642 0.000000 0.000000
       CHANNELS 3 Yrotation Xrotation Zrotation
       JOINT LeftElbow
       {
        OFFSET 30.053852 0.000000 0.000000
        CHANNELS 3 Yrotation Xrotation Zrotation
        JOINT LeftWrist
        {
         OFFSET 24.564923 0.000000 -0.000000
         CHANNELS 3 Yrotation Xrotation Zrotation
         End Site
         {
          OFFSET 18.334355 0.000000 0.000000
         }
        }
       }
      }
     }
    }
   }
  }
 }
 JOINT RightHip
 {
  OFFSET -8.003235 -0.001175 -0.000120
  CHANNELS 3 Yrotation Xrotation Zrotation
  JOINT RightKnee
  {
   OFFSET 0.000000 -41.759727 0.000113
   CHANNELS 3 Yrotation Xrotation Zrotation
   JOINT RightAnkle
   {
    OFFSET 0.000000 -40.728748 0.000159
    CHANNELS 3 Yrotation Xrotation Zrotation
    JOINT RightToe
    {
     OFFSET 0.000000 -6.515296 14.732841
     CHANNELS 3 Yrotation Xrotation Zrotation
     End Site
     {
      OFFSET 0.000000 -1.502839 6.412115
     }
    }
   }
  }
 }
 JOINT LeftHip
 {
  OFFSET 8.003235 -0.001175 -0.000120
  CHANNELS 3 Yrotation Xrotation Zrotation
  JOINT LeftKnee
  {
   OFFSET 0.000000 -41.759727 0.000113
   CHANNELS 3 Yrotation Xrotation Zrotation
   JOINT LeftAnkle
   {
    OFFSET 0.000000 -40.728748 0.000159
    CHANNELS 3 Yrotation Xrotation Zrotation
    JOINT LeftToe
    {
     OFFSET 0.000000 -6.515296 14.732841
     CHANNELS 3 Yrotation Xrotation Zrotation
     End Site
     {
      OFFSET 0.000000 -1.502839 6.412115
     }
    }
   }
  }
 }
}
MOTION
Frames: 9
Frame Time: 0.016667
15.392461 90.923416 19.322519 -77.091570 -1.135205 -2.527574 -13.437323 13.773138 -1.673536 -4.799852 5.864199 -0.262069 -4.799852 5.864199 -0.262069 -3.594217 4.400527 -0.150190 -17.406914 19.777710 7.549952 -33.777320 4.498325 18.472482 -4.559216 -19.471896 2.741010 -6.115480 2.758829 23.088645 9.346240 -4.591057 -8.325263 -0.172842 5.375914 0.242607 -18.566352 -13.964853 -9.352596 -26.774201 11.496762 -59.935918 -31.555327 -39.951879 1.346262 2.023166 6.050668 6.006971 17.903935 2.064505 -2.654433 4.853947 -2.575068 3.188552 1.637069 3.449386 6.424084 2.542430 0.078133 1.035664 15.685740 7.341018 2.976884 17.558176 1.400687 -2.381274 12.062548 -6.111635 -0.227048 -1.903007 -0.625002 -1.251095
15.359542 90.932634 19.320736 -77.175679 -0.812299 -2.492347 -13.259882 13.736423 -1.448825 -4.800842 5.880492 -0.182752 -4.800842 5.880492 -0.182752 -3.595699 4.412125 -0.090610 -17.809028 19.556091 8.043332 -34.671809 4.391251 19.494563 -4.384126 -19.688566 2.317989 -6.106971 2.865126 23.018502 9.421805 -4.657380 -8.258952 -0.218782 5.325637 0.226274 -18.717581 -14.149968 -9.522569 -27.132273 11.499769 -60.087725 -31.747269 -40.378148 1.627819 1.972500 6.021808 6.036999 18.106958 1.816334 -2.767157 4.958521 -2.651571 3.080225 1.700352 3.515692 6.583391 2.367933 0.059496 0.982428 16.037269 7.042263 2.859822 17.303124 1.355642 -2.357794 12.092487 -6.035726 -0.139035 -1.832159 -0.633199 -1.234218
15.342282 90.943438 19.352851 -77.255678 -0.539607 -2.456575 -13.056924 13.644494 -1.247871 -4.777920 5.851503 -0.107451 -4.777920 5.851503 -0.107451 -3.579286 4.389783 -0.034631 -18.222923 19.398061 8.467431 -35.555922 4.387653 20.377541 -4.273383 -19.705289 1.918881 -6.108081 2.928687 22.993816 9.397215 -4.715844 -8.283491 -0.266895 5.285263 0.195613 -18.941266 -14.177225 -9.707876 -27.522845 11.556419 -60.333818 -31.999027 -40.892183 2.036738 1.889936 6.008588 6.080148 18.420118 1.565153 -2.933186 5.165742 -2.630787 3.070563 1.547778 3.527033 6.749228 2.188685 0.046307 0.890305 16.250795 6.793060 2.700721 17.237589 1.322268 -2.301974 12.044657 -5.979055 -0.050438 -1.733181 -0.636661 -1.208831
15.326794 90.958367 19.358280 -77.363054 -0.293797 -2.498562 -12.806826 13.530868 -0.983063 -4.751034 5.808081 -0.033465 -4.751034 5.808081 -0.033465 -3.559898 4.356632 0.020215 -18.633317 19.288033 8.821523 -36.404719 4.451875 21.120381 -4.242817 -19.668849 1.525111 -6.066427 2.950350 22.938569 9.357799 -4.784330 -8.364377 -0.369109 5.193356 0.146086 -19.216735 -14.099517 -9.913146 -27.890125 11.651345 -60.533229 -32.316346 -41.483219 2.530069 1.826906 5.996855 6.105278 19.040300 1.252530 -3.026643 5.054451 -2.465936 3.106621 1.617693 3.490538 6.896418 2.097142 0.014748 0.805205 16.441123 6.508783 2.616059 17.205108 1.328399 -2.258466 11.849632 -5.975793 0.065648 -1.620505 -0.594399 -1.167032
15.349089 90.980918 19.346570 -77.452707 -0.036562 -2.547731 -12.592877 13.392571 -0.726089 -4.739280 5.763278 0.033119 -4.739280 5.763278 0.033119 -3.551769 4.322509 0.069652 -19.005986 19.184341 9.110690 -37.167980 4.497630 21.737535 -4.194141 -19.608740 1.185209 -6.075809 3.084019 22.766594 9.448466 -5.033618 -8.418533 -0.505768 5.091294 0.024360 -19.329057 -14.077854 -10.094861 -28.272479 11.806629 -60.740680 -32.658197 -41.978480 3.033647 1.808461 5.964925 6.112659 19.778256 0.884141 -3.025106 4.702526 -2.260856 2.987470 1.755631 3.522243 7.138189 2.038432 -0.042105 0.709503 16.418547 6.214415 2.531481 17.275355 1.358970 -2.174999 12.007737 -5.970087 0.103388 -1.557817 -0.556088 -1.138767
15.362061 91.009052 19.319996 -77.574362 0.153862 -2.568864 -12.413566 13.293545 -0.526259 -4.735412 5.728461 0.082431 -4.735412 5.728461 0.082431 -3.549368 4.296013 0.106299 -19.293996 19.081586 9.372769 -37.772333 4.511405 22.288676 -4.123931 -19.659501 0.900575 -6.104999 3.138081 22.549180 9.446893 -5.018250 -8.330569 -0.632798 5.019418 -0.200008 -19.352620 -14.040699 -10.251726 -28.466430 11.823970 -60.927154 -32.950007 -42.199958 3.412704 1.779519 5.956568 6.186748 20.389287 0.603204 -3.022725 4.392266 -2.104167 2.851566 1.901046 3.588719 7.412276 1.970822 -0.082259 0.604180 16.390143 5.965644 2.447296 17.347021 1.410569 -2.100337 12.040284 -5.946440 0.138932 -1.485864 -0.535517 -1.087874
15.376435 91.036600 19.304026 -77.649872 0.267777 -2.533749 -12.345515 13.226449 -0.422049 -4.735980 5.702692 0.112779 -4.735980 5.702692 0.112779 -3.550101 4.276450 0.128847 -19.485859 18.984125 9.589243 -38.192076 4.487561 22.738405 -4.012502 -19.653035 0.636075 -6.117217 3.038576 22.365887 9.289979 -4.693046 -8.122419 -0.689588 5.037564 -0.434770 -19.402446 -14.008327 -10.352793 -28.470698 11.766424 -61.133889 -33.166196 -42.200509 3.762443 1.707124 5.925246 6.271107 20.845184 0.415992 -3.089547 4.137285 -1.943277 2.833116 1.917840 3.612881 7.587238 1.917445 -0.070791 0.529650 16.397511 5.827686 2.361347 17.296645 1.449877 -2.100391 12.217440 -5.910559 0.209433 -1.463559 -0.544151 -1.046967
15.392198 91.059113 19.299450 -77.780447 0.374648 -2.487998 -12.260548 13.131382 -0.365257 -4.738080 5.678693 0.126679 -4.738080 5.678693 0.126679 -3.551825 4.258342 0.139096 -19.598973 18.897691 9.769341 -38.459344 4.443775 23.105104 -3.863649 -19.464527 0.457893 -6.218219 2.867780 22.134981 9.229714 -4.446689 -7.955523 -0.722464 5.086257 -0.475997 -19.418634 -13.958236 -10.415098 -28.500836 11.709848 -61.336476 -33.314537 -42.188891 4.052924 1.619320 5.917013 6.361131 21.239064 0.252542 -3.172955 3.960127 -1.807157 2.788720 2.031593 3.613073 7.770679 1.825797 -0.045199 0.483132 16.422651 5.714497 2.256329 17.265372 1.459799 -2.103942 12.380971 -5.890107 0.267613 -1.433536 -0.531259 -0.994034
15.407463 91.073455 19.312757 -77.883557 0.486040 -2.426292 -12.225772 13.028360 -0.351712 -4.736363 5.642448 0.136767 -4.736363 5.642448 0.136767 -3.550661 4.231078 0.146358 -19.664049 18.846615 9.904863 -38.620916 4.429347 23.372619 -3.771004 -19.438458 0.346746 -6.245096 3.068708 21.981162 9.200601 -4.438033 -7.891994 -0.754584 5.060393 -0.486178 -19.449189 -13.848064 -10.486099 -28.492826 11.637124 -61.429028 -33.359600 -42.169295 4.227236 1.526904 5.848301 6.413851 21.294610 0.145746 -3.268988 3.939208 -1.790940 2.759215 2.141823 3.662190 7.870909 1.766109 -0.009989 0.488439 16.408452 5.614002 2.134388 17.236448 1.474010 -2.132240 12.616893 -5.887035 0.320109 -1.427544 -0.524793 -0.938882
